<svg width="7" height="11" viewBox="0 0 7 11" fill="none" xmlns="http://www.w3.org/2000/svg">
<path fill-rule="evenodd" clip-rule="evenodd" d="M1.1663 1.13154C1.35035 0.956154 1.64831 0.956154 1.83189 1.13154L5.72428 4.85014C6.09191 5.20136 6.09191 5.77114 5.72428 6.12236L1.80365 9.86839C1.62148 10.042 1.32728 10.0442 1.14276 9.87289C0.954472 9.69796 0.952118 9.40969 1.13758 9.23206L4.72588 5.80442C4.90993 5.62858 4.90993 5.34392 4.72588 5.16808L1.1663 1.76742C0.982245 1.59204 0.982245 1.30692 1.1663 1.13154Z" fill="#2763FE"/>
<path d="M1.1663 1.13154V1.13154C1.35035 0.956154 1.64831 0.956154 1.83189 1.13154L5.72428 4.85014C6.09191 5.20136 6.09191 5.77114 5.72428 6.12236L1.80365 9.86839C1.62148 10.042 1.32728 10.0442 1.14276 9.87289V9.87289C0.954472 9.69796 0.952118 9.40969 1.13758 9.23206L4.72588 5.80442C4.90993 5.62858 4.90993 5.34392 4.72588 5.16808L1.1663 1.76742C0.982245 1.59204 0.982245 1.30692 1.1663 1.13154" stroke="#2763FE"/>
</svg>
