<svg width="7" height="11" viewBox="0 0 7 11" fill="none" xmlns="http://www.w3.org/2000/svg">
<path fill-rule="evenodd" clip-rule="evenodd" d="M1.1663 9.86846C1.35035 10.0438 1.64831 10.0438 1.83189 9.86846L5.72428 6.14986C6.09191 5.79864 6.09191 5.22886 5.72428 4.87764L1.80365 1.13161C1.62148 0.958021 1.32728 0.955773 1.14276 1.12711C0.954472 1.30204 0.952118 1.59031 1.13758 1.76794L4.72588 5.19558C4.90993 5.37142 4.90993 5.65608 4.72588 5.83192L1.1663 9.23258C0.982245 9.40796 0.982245 9.69308 1.1663 9.86846Z" fill="#F84962"/>
<path d="M1.1663 9.86846V9.86846C1.35035 10.0438 1.64831 10.0438 1.83189 9.86846L5.72428 6.14986C6.09191 5.79864 6.09191 5.22886 5.72428 4.87764L1.80365 1.13161C1.62148 0.958021 1.32728 0.955773 1.14276 1.12711V1.12711C0.954472 1.30204 0.952118 1.59031 1.13758 1.76794L4.72588 5.19558C4.90993 5.37142 4.90993 5.65608 4.72588 5.83192L1.1663 9.23258C0.982245 9.40796 0.982245 9.69308 1.1663 9.86846" stroke="#F84962"/>
</svg>
