<svg width="11" height="11" viewBox="0 0 11 11" fill="none" xmlns="http://www.w3.org/2000/svg">
<path fill-rule="evenodd" clip-rule="evenodd" d="M1.09294 9.90706C1.15491 9.96902 1.23236 10 1.31756 10C1.40275 10 1.48021 9.96902 1.54217 9.90706L5.5 5.94923L9.45783 9.90706C9.51979 9.96902 9.59725 10 9.68244 10C9.7599 10 9.84509 9.96902 9.90706 9.90706C10.031 9.78313 10.031 9.58175 9.90706 9.45783L5.94923 5.5L9.90706 1.54217C10.031 1.41824 10.031 1.21687 9.90706 1.09294C9.78313 0.969019 9.58175 0.969019 9.45783 1.09294L5.5 5.05077L1.54217 1.09294C1.41824 0.969019 1.21687 0.969019 1.09294 1.09294C0.969019 1.21687 0.969019 1.41824 1.09294 1.54217L5.05077 5.5L1.09294 9.45783C0.969019 9.58175 0.969019 9.78313 1.09294 9.90706Z" fill="#F84962" stroke="#F84962"/>
</svg>
